<svg width="68" height="68" viewBox="0 0 68 68" fill="none" xmlns="http://www.w3.org/2000/svg">
<path d="M51.0003 28.3337C51.0003 29.8985 49.7318 31.167 48.167 31.167C46.6022 31.167 45.3337 29.8985 45.3337 28.3337C45.3337 26.7689 46.6022 25.5003 48.167 25.5003C49.7318 25.5003 51.0003 26.7689 51.0003 28.3337Z" fill="#253053"/>
<path fill-rule="evenodd" clip-rule="evenodd" d="M33.8448 3.54199H34.1558C38.0306 3.54194 41.1539 3.54189 43.6103 3.87214C46.1606 4.21502 48.3079 4.94856 50.0133 6.65399C52.1099 8.75059 52.7583 11.5466 52.9871 15.0154C53.6813 15.0617 54.3331 15.1234 54.9436 15.2055C57.4939 15.5484 59.6412 16.2819 61.3467 17.9873C63.0521 19.6928 63.7856 21.8401 64.1285 24.3904C64.4588 26.8468 64.4587 29.97 64.4587 33.8449V34.1558C64.4587 38.0306 64.4588 41.1539 64.1285 43.6103C63.7856 46.1606 63.0521 48.3079 61.3467 50.0133C59.2501 52.1099 56.454 52.7583 52.9853 52.9871C52.9389 53.6813 52.8773 54.3331 52.7952 54.9436C52.4523 57.4939 51.7188 59.6412 50.0133 61.3467C48.3079 63.0521 46.1606 63.7856 43.6103 64.1285C41.1539 64.4588 38.0306 64.4587 34.1558 64.4587H33.8449C29.97 64.4587 26.8468 64.4588 24.3904 64.1285C21.8401 63.7856 19.6927 63.0521 17.9873 61.3467C16.2819 59.6412 15.5484 57.4939 15.2055 54.9436C15.1234 54.3331 15.0617 53.6813 15.0154 52.9871C11.5466 52.7583 8.75059 52.1099 6.65399 50.0133C4.94856 48.3079 4.21502 46.1606 3.87214 43.6103C3.54189 41.1539 3.54194 38.0306 3.54199 34.1558V33.8448C3.54194 29.97 3.54189 26.8468 3.87214 24.3904C4.21502 21.8401 4.94856 19.6928 6.65399 17.9873C8.35942 16.2819 10.5067 15.5484 13.057 15.2055C13.6676 15.1234 14.3193 15.0617 15.0136 15.0154C15.2423 11.5466 15.8907 8.75059 17.9873 6.65399C19.6927 4.94856 21.8401 4.21502 24.3904 3.87214C26.8468 3.54189 29.97 3.54194 33.8448 3.54199ZM19.2872 14.8837C20.2985 14.8753 21.3725 14.8753 22.5115 14.8753H45.4891C46.6281 14.8753 47.7022 14.8753 48.7134 14.8837C48.4812 11.9912 47.9588 10.6098 47.0081 9.65919C46.224 8.87503 45.123 8.36376 43.044 8.08425C40.9038 7.79651 38.0673 7.792 34.0003 7.792C29.9333 7.792 27.0968 7.79651 24.9567 8.08425C22.8776 8.36376 21.7767 8.87503 20.9925 9.65919C20.0419 10.6098 19.5194 11.9913 19.2872 14.8837ZM14.8837 48.7134C14.8753 47.7022 14.8753 46.6281 14.8753 45.4891L14.8753 41.792H14.167C12.9934 41.792 12.042 40.8406 12.042 39.667C12.042 38.4934 12.9934 37.542 14.167 37.542H53.8337C55.0073 37.542 55.9587 38.4934 55.9587 39.667C55.9587 40.8406 55.0073 41.792 53.8337 41.792H53.1253V45.4891C53.1253 46.6281 53.1254 47.7022 53.117 48.7134C56.0094 48.4812 57.3909 47.9588 58.3415 47.0081C59.1256 46.224 59.6369 45.123 59.9164 43.044C60.2042 40.9038 60.2087 38.0673 60.2087 34.0003C60.2087 29.9333 60.2042 27.0968 59.9164 24.9567C59.6369 22.8776 59.1256 21.7767 58.3415 20.9925C57.5573 20.2084 56.4564 19.6971 54.3773 19.4176C52.2372 19.1298 49.4007 19.1253 45.3337 19.1253H22.667C18.6 19.1253 15.7635 19.1298 13.6233 19.4176C11.5443 19.6971 10.4434 20.2084 9.65919 20.9925C8.87503 21.7767 8.36376 22.8776 8.08425 24.9567C7.79651 27.0968 7.792 29.9333 7.792 34.0003C7.792 38.0673 7.79651 40.9038 8.08425 43.044C8.36376 45.123 8.87503 46.224 9.65919 47.0081C10.6098 47.9588 11.9912 48.4812 14.8837 48.7134ZM48.8753 41.792H19.1253V45.3337C19.1253 49.4007 19.1298 52.2372 19.4176 54.3773C19.6971 56.4564 20.2084 57.5573 20.9925 58.3415C21.7767 59.1256 22.8776 59.6369 24.9567 59.9164C27.0968 60.2042 29.9333 60.2087 34.0003 60.2087C38.0673 60.2087 40.9038 60.2042 43.044 59.9164C45.123 59.6369 46.224 59.1256 47.0081 58.3415C47.7923 57.5573 48.3036 56.4564 48.5831 54.3773C48.8708 52.2372 48.8753 49.4007 48.8753 45.3337V41.792ZM14.8753 28.3337C14.8753 27.1601 15.8267 26.2087 17.0003 26.2087H25.5003C26.6739 26.2087 27.6253 27.1601 27.6253 28.3337C27.6253 29.5073 26.6739 30.4587 25.5003 30.4587H17.0003C15.8267 30.4587 14.8753 29.5073 14.8753 28.3337ZM23.3753 47.6141C23.3753 46.4405 24.3267 45.4891 25.5003 45.4891H42.5003C43.6739 45.4891 44.6253 46.4405 44.6253 47.6141C44.6253 48.7877 43.6739 49.7391 42.5003 49.7391H25.5003C24.3267 49.7391 23.3753 48.7877 23.3753 47.6141ZM23.3753 54.6975C23.3753 53.5239 24.3267 52.5725 25.5003 52.5725H36.8337C38.0073 52.5725 38.9587 53.5239 38.9587 54.6975C38.9587 55.8711 38.0073 56.8225 36.8337 56.8225H25.5003C24.3267 56.8225 23.3753 55.8711 23.3753 54.6975Z" fill="#253053"/>
</svg>
