<svg width="169" height="74" viewBox="0 0 169 74" fill="none" xmlns="http://www.w3.org/2000/svg">
<path d="M159.438 0.5L159.873 0.510742C164.349 0.737451 167.909 4.43896 167.909 8.97168V64.8818C167.909 69.5606 164.116 73.3535 159.438 73.3535H9.56543C4.88674 73.3534 1.09392 69.5605 1.09375 64.8818V8.97168C1.09387 4.29296 4.8867 0.500121 9.56543 0.5H159.438Z" fill="white" stroke="#E3E4E9"/>
<path d="M1 43.0469H168V65.4384C168 70.0791 164.405 73.8412 159.971 73.8412H9.02885C4.59464 73.8412 1 70.0791 1 65.4384V43.0469Z" fill="url(#paint0_linear_1_22447)"/>
<path d="M148.206 52.536V50.8421L147.656 52.536H147.291L146.736 50.8374V52.536H146.096V49.9619H146.886L147.471 51.7271L148.101 49.9619H148.85V52.536H148.206ZM145.741 49.9619V50.4615H145.097V52.5217H144.382V50.4615H143.702V49.9619H145.741Z" fill="white"/>
<path d="M34.1615 50.147V59.563C34.1615 60.9048 33.8453 62.0616 33.2129 63.0332C32.5806 64.0049 31.7323 64.753 30.6681 65.2774C29.6193 65.7863 28.4471 66.0408 27.1515 66.0408C25.8714 66.0408 24.6992 65.7863 23.635 65.2774C22.5708 64.753 21.7225 64.0049 21.0901 63.0332C20.4578 62.0616 20.1416 60.9048 20.1416 59.563V50.147H24.4679V59.2622C24.4679 60.0642 24.6838 60.7274 25.1157 61.2518C25.5475 61.7608 26.2261 62.0076 27.1515 61.9922C28.0769 61.9767 28.7556 61.7223 29.1874 61.2287C29.6193 60.7197 29.8352 60.0642 29.8352 59.2622V50.147H34.1615Z" fill="white"/>
<path d="M42.4207 50.1933V61.8765H49.3844V65.6938H38.0945V50.1933H42.4207Z" fill="white"/>
<path d="M64.7924 50.1933V54.0106H60.2348V65.6244H55.9085V54.0106H51.3509V50.1933H64.7924Z" fill="white"/>
<path d="M76.7764 61.8765V65.6938H67.2216V61.8765H69.8358V54.0106H67.2216V50.1933H76.7764V54.0106H74.1621V61.8765H76.7764Z" fill="white"/>
<path d="M96.9965 49.9619V65.6938H92.6702V58.0592L89.5007 61.6451H88.2051L85.0356 58.0592V65.6938H80.7093V49.9619H82.2362L88.8529 56.6711L95.4695 49.9619H96.9965Z" fill="white"/>
<path d="M108.657 49.9619L115.828 65.6938H110.785L110.022 63.6116H105.117L104.353 65.6938H99.31L106.482 49.9619H108.657ZM107.569 56.9487L106.389 60.1414H108.749L107.569 56.9487Z" fill="white"/>
<path d="M128.46 50.1933V54.0106H123.903V65.6244H119.576V54.0106H115.019V50.1933H128.46Z" fill="white"/>
<path d="M141.601 56.2315V59.4704H135.447V61.9922H142.411V65.6938H131.121V50.1933H142.411V53.7792H135.447V56.2315H141.601Z" fill="white"/>
<path d="M53.996 26.7831C53.996 26.0405 53.7331 25.4057 53.2073 24.8786C52.7303 24.3946 52.1614 24.1361 51.502 24.1002H48.3974V28.7291C48.3974 29.0796 48.2753 29.3783 48.0296 29.6239C47.7767 29.8767 47.475 30.0031 47.1245 30.0031H47.103C46.7452 30.0031 46.4464 29.8767 46.2079 29.6239C45.9565 29.3855 45.8301 29.0868 45.8301 28.7291V17.6731C45.8301 16.5443 46.2295 15.5791 47.0297 14.7806C47.8356 13.9749 48.8039 13.5713 49.9332 13.5713H51.3009C52.7533 13.5713 53.9903 14.0869 55.0146 15.1181C56.0461 16.1493 56.5619 17.3902 56.5619 18.8422C56.5619 20.287 56.0461 21.5251 55.0146 22.5548L54.7732 22.8076L55.0261 23.0704C56.0504 24.0945 56.5619 25.3325 56.5619 26.7831V28.7291C56.5619 29.0868 56.4354 29.3855 56.1826 29.6239C55.9297 29.8767 55.6324 30.0031 55.2876 30.0031H55.2689C54.9255 30.0031 54.6267 29.8767 54.3738 29.6239C54.121 29.3855 53.9946 29.0868 53.9946 28.7291V26.7831H53.996ZM51.3023 21.5236C52.045 21.5236 52.68 21.2637 53.2073 20.7452C53.7331 20.2195 53.996 19.5847 53.996 18.8408C53.996 18.0911 53.7331 17.4519 53.2073 16.9263C52.6815 16.4078 52.0465 16.1479 51.3023 16.1479H50.0926C49.5668 16.1479 49.1559 16.2915 48.8614 16.5787C48.6301 16.81 48.4821 17.0843 48.4189 17.3988C48.4046 17.4764 48.3974 17.5984 48.3974 17.7665V21.5222H51.3023V21.5236Z" fill="#253053"/>
<path d="M69.9525 23.0226C69.989 23.2138 69.9828 23.398 69.9356 23.5741C69.8973 23.717 69.8316 23.8511 69.7392 23.9795C69.5385 24.2677 69.2603 24.44 68.9032 24.496C67.8396 24.6689 66.4429 24.8969 64.7114 25.1808C62.5613 25.534 61.3001 25.7447 60.9254 25.8108C61.2659 26.5994 61.9824 27.1393 63.0731 27.4316C63.7975 27.6257 64.5125 27.5883 65.2164 27.3204C65.9049 27.0544 66.4537 26.6216 66.8621 26.0188C67.2079 25.5167 67.6753 25.3431 68.2651 25.5011C68.6855 25.6138 68.9728 25.8796 69.1295 26.2992C69.227 26.5573 69.2437 26.8056 69.1801 27.0428C69.1419 27.1857 69.0751 27.324 68.9812 27.4579C68.2711 28.5092 67.3184 29.2561 66.1262 29.6979C64.9126 30.1637 63.6744 30.2275 62.4144 29.8899C60.8019 29.4578 59.5761 28.5152 58.7379 27.064C57.8997 25.6127 57.6961 24.0802 58.128 22.4682C58.5599 20.8561 59.5025 19.6308 60.9541 18.793C62.4056 17.9553 63.9385 17.7519 65.551 18.184C66.7167 18.4963 67.6941 19.1002 68.487 19.9937C69.2758 20.8741 69.7642 21.8823 69.9525 23.0226ZM64.8799 20.694C63.9446 20.4433 63.06 20.5587 62.2278 21.039C61.4008 21.5222 60.863 22.2301 60.6125 23.1651L60.5935 23.2359L66.958 22.2083C66.6151 21.4786 65.9221 20.9732 64.8799 20.694Z" fill="#253053"/>
<path d="M72.9823 34.4487C72.639 34.4487 72.3401 34.3223 72.0873 34.0695C71.8344 33.8167 71.708 33.5194 71.708 33.1747V24.0447C71.7152 22.3686 72.3114 20.9453 73.4966 19.7734C74.6747 18.5957 76.0984 18.0068 77.7692 18.0068C79.4386 18.0068 80.8667 18.6 82.0519 19.7849C83.2371 20.9698 83.8305 22.3974 83.8305 24.0662C83.8305 25.7351 83.2371 27.1627 82.0519 28.3476C80.8667 29.5325 79.4386 30.1256 77.7692 30.1256C76.2392 30.1256 75.0784 29.7752 74.2868 29.0743V33.1762C74.2868 33.5194 74.1604 33.8182 73.9075 34.0709C73.6547 34.3237 73.3573 34.4501 73.0125 34.4501H72.9823V34.4487ZM80.2317 26.5064C80.9126 25.8256 81.2517 25.0055 81.2517 24.0447C81.2517 23.0767 80.9112 22.2523 80.2317 21.573C79.5579 20.8994 78.7375 20.5633 77.7692 20.5633C76.8009 20.5633 75.9763 20.8994 75.2968 21.573C74.623 22.2537 74.2868 23.0767 74.2868 24.0447C74.2868 25.0055 74.623 25.8256 75.2968 26.5064C75.9777 27.1871 76.8009 27.5261 77.7692 27.5261C78.7304 27.5261 79.5521 27.1871 80.2317 26.5064Z" fill="#253053"/>
<path d="M95.5612 19.7849C96.7464 20.9698 97.3397 22.3974 97.3397 24.0662V28.8532C97.3397 29.2108 97.2133 29.5095 96.9605 29.7479C96.7076 30.0007 96.4102 30.1271 96.0654 30.1271H96.0338C95.6905 30.1271 95.3916 30.0007 95.1388 29.7479C94.8859 29.5095 94.7595 29.2108 94.7595 28.8532C93.9593 29.702 92.7985 30.1256 91.2771 30.1256C89.6077 30.1256 88.1796 29.5325 86.9944 28.3476C85.8092 27.1627 85.2158 25.7351 85.2158 24.0662C85.2158 22.3974 85.8092 20.9698 86.9944 19.7849C88.1796 18.6 89.6077 18.0068 91.2771 18.0068C92.9479 18.0068 94.3759 18.6 95.5612 19.7849ZM88.806 21.6046C88.1322 22.2853 87.7961 23.1054 87.7961 24.0662C87.7961 25.0343 88.1322 25.8586 88.806 26.538C89.487 27.2116 90.3102 27.5476 91.2785 27.5476C92.2468 27.5476 93.0671 27.2116 93.7409 26.538C94.4219 25.8572 94.7609 25.0343 94.7609 24.0662C94.7609 23.1054 94.4205 22.2853 93.7409 21.6046C93.0599 20.9238 92.2396 20.5848 91.2785 20.5848C90.3102 20.5834 89.4856 20.9238 88.806 21.6046Z" fill="#253053"/>
<path d="M100.192 16.5055C99.7857 16.5055 99.4381 16.3619 99.1507 16.0746C98.8634 15.7874 98.7197 15.4398 98.7197 15.0334C98.7197 14.6341 98.8634 14.2908 99.1507 14.0022C99.4381 13.7149 99.7857 13.5713 100.192 13.5713C100.592 13.5713 100.935 13.7149 101.224 14.0022C101.518 14.2822 101.666 14.6269 101.666 15.0334C101.666 15.447 101.518 15.7946 101.224 16.0746C100.936 16.3619 100.593 16.5055 100.192 16.5055ZM100.204 17.8728C100.562 17.8728 100.859 17.9991 101.099 18.2519C101.352 18.5047 101.478 18.8063 101.478 19.1567V28.7191C101.478 29.0767 101.352 29.3754 101.099 29.6138C100.86 29.8666 100.562 29.993 100.204 29.993H100.182C99.8317 29.993 99.53 29.8666 99.2771 29.6138C99.0243 29.3754 98.8979 29.0767 98.8979 28.7191V19.1553C98.8979 18.8049 99.0243 18.5033 99.2771 18.2505C99.53 17.9977 99.8317 17.8713 100.182 17.8713H100.204V17.8728Z" fill="#253053"/>
<path d="M108.29 18.0068C108.64 18.0068 108.942 18.1332 109.195 18.386C109.44 18.6388 109.563 18.9404 109.563 19.2908V19.3124C109.563 19.6628 109.439 19.9615 109.195 20.2071C108.942 20.4599 108.64 20.5863 108.29 20.5863H107.691C107.116 20.5863 106.628 20.7859 106.228 21.1852C105.834 21.5845 105.635 22.0728 105.629 22.6473V28.8532C105.629 29.2108 105.503 29.5095 105.25 29.7479C104.997 30.0007 104.7 30.1271 104.355 30.1271H104.323C103.98 30.1271 103.681 30.0007 103.428 29.7479C103.175 29.5095 103.049 29.2108 103.049 28.8532V22.6458C103.063 21.3618 103.516 20.2689 104.406 19.3641C105.312 18.4592 106.406 18.0068 107.689 18.0068H108.29Z" fill="#253053"/>
<path d="M121.95 13.8209C122.586 13.9877 122.904 14.3956 122.904 15.0431V15.0745C122.904 15.4852 122.738 15.8204 122.406 16.0771C122.185 16.2511 121.943 16.3381 121.68 16.3381C121.569 16.3381 121.455 16.3238 121.337 16.2967C120.874 16.1783 120.407 16.1184 119.937 16.1184C118.403 16.1184 117.094 16.6646 116.008 17.7585C114.923 18.8524 114.381 20.1744 114.381 21.7275C114.381 23.2806 114.923 24.6041 116.008 25.6965C117.094 26.7832 118.403 27.3266 119.937 27.3266C120.407 27.3266 120.874 27.271 121.337 27.1598C121.455 27.1327 121.569 27.1184 121.68 27.1184C121.943 27.1184 122.184 27.2054 122.406 27.3794C122.737 27.6304 122.904 27.9641 122.904 28.382V28.4034C122.904 29.058 122.586 29.4687 121.95 29.6356C121.293 29.8024 120.622 29.8866 119.939 29.8866C117.707 29.8866 115.799 29.0893 114.216 27.4949C112.634 25.9005 111.843 23.978 111.843 21.7289C111.843 19.4799 112.634 17.5574 114.216 15.963C115.799 14.3685 117.707 13.5713 119.939 13.5713C120.622 13.5699 121.293 13.654 121.95 13.8209Z" fill="#2589F6"/>
<path fill-rule="evenodd" clip-rule="evenodd" d="M122.048 13.4375L122.048 13.4375C122.428 13.537 122.751 13.7193 122.977 14.0086C123.203 14.2985 123.3 14.6554 123.3 15.0452V15.0766C123.3 15.6125 123.076 16.0628 122.648 16.3935C122.363 16.6181 122.035 16.7388 121.677 16.7388C121.532 16.7388 121.387 16.7201 121.245 16.6872L121.236 16.6851L121.236 16.685C120.804 16.5746 120.37 16.5191 119.935 16.5191C118.507 16.5191 117.299 17.0226 116.288 18.0414C115.278 19.0599 114.776 20.2808 114.776 21.7296C114.776 23.1784 115.278 24.4004 116.288 25.4173C117.299 26.4291 118.506 26.9301 119.935 26.9301C120.373 26.9301 120.809 26.8783 121.241 26.7743L121.245 26.7734L121.245 26.7735C121.387 26.7405 121.532 26.7219 121.677 26.7219C122.036 26.7219 122.36 26.8427 122.646 27.0657C123.075 27.3916 123.3 27.842 123.3 28.3841V28.4055C123.3 28.7979 123.204 29.1569 122.978 29.4485C122.752 29.74 122.428 29.9235 122.048 30.0232L122.045 30.024L122.045 30.024C121.357 30.199 120.653 30.2873 119.936 30.2873C117.597 30.2873 115.587 29.4471 113.931 27.7778C112.274 26.1086 111.441 24.0851 111.441 21.731C111.441 19.377 112.274 17.3535 113.931 15.6843C115.587 14.0151 117.597 13.1749 119.936 13.1748C120.653 13.1734 121.357 13.2617 122.045 13.4367L122.048 13.4375ZM122.403 27.3815C122.181 27.2075 121.94 27.1205 121.677 27.1205C121.567 27.1205 121.452 27.1348 121.334 27.1619C120.872 27.2731 120.404 27.3287 119.935 27.3287C118.4 27.3287 117.091 26.7854 116.005 25.6986C114.92 24.6062 114.378 23.2827 114.378 21.7296C114.378 20.1765 114.92 18.8545 116.005 17.7606C117.091 16.6668 118.4 16.1205 119.935 16.1205C120.404 16.1205 120.872 16.1804 121.334 16.2988C121.452 16.3259 121.567 16.3402 121.677 16.3402C121.94 16.3402 122.182 16.2532 122.403 16.0792C122.736 15.8225 122.901 15.4873 122.901 15.0766V15.0452C122.901 14.3977 122.583 13.9899 121.947 13.823C121.291 13.6561 120.62 13.572 119.936 13.5734C117.704 13.5734 115.796 14.3706 114.214 15.9651C112.631 17.5595 111.84 19.482 111.84 21.731C111.84 23.9801 112.631 25.9026 114.214 27.497C115.796 29.0915 117.704 29.8887 119.936 29.8887C120.62 29.8887 121.291 29.8045 121.947 29.6377C122.583 29.4708 122.901 29.0601 122.901 28.4055V28.3841C122.901 27.9662 122.734 27.6325 122.403 27.3815Z" fill="#2589F6"/>
<path d="M128.64 28.8768C128.64 29.2379 128.514 29.5395 128.261 29.7802C128.007 30.0355 127.709 30.1631 127.364 30.1631H127.332C126.988 30.1631 126.689 30.0355 126.436 29.7802C126.182 29.5395 126.056 29.2379 126.056 28.8768V18.6804C126.056 17.2708 126.551 16.0671 127.542 15.0694C128.534 14.0716 129.729 13.5713 131.126 13.5713C132.798 13.5713 134.061 14.1311 134.91 15.2492C135.753 14.1311 137.011 13.5713 138.683 13.5713C140.082 13.5713 141.277 14.0702 142.267 15.0694C143.257 16.0685 143.754 17.2722 143.754 18.6804V28.8768C143.754 29.2306 143.631 29.5323 143.385 29.7802C143.132 30.0355 142.83 30.1631 142.478 30.1631H142.457C142.099 30.1631 141.799 30.0355 141.56 29.7802C141.307 29.5395 141.18 29.2379 141.18 28.8768V18.6804C141.18 17.9799 140.939 17.3839 140.453 16.8966C139.968 16.4093 139.378 16.1643 138.683 16.1643C137.994 16.1643 137.408 16.4079 136.923 16.8966C136.438 17.3853 136.196 17.9799 136.196 18.6804V28.8768C136.196 29.2379 136.07 29.5395 135.816 29.7802C135.577 30.0355 135.278 30.1631 134.92 30.1631H134.898C134.547 30.1631 134.245 30.0355 133.991 29.7802C133.738 29.5395 133.611 29.2379 133.611 28.8768V18.6804C133.611 17.9799 133.37 17.3839 132.885 16.8966C132.4 16.4093 131.812 16.1643 131.125 16.1643C130.435 16.1643 129.849 16.4079 129.364 16.8966C128.879 17.3853 128.64 17.9785 128.64 18.6804V28.8768Z" fill="#2589F6"/>
<path fill-rule="evenodd" clip-rule="evenodd" d="M128.54 30.0673C128.216 30.3914 127.819 30.5638 127.364 30.5638H127.332C126.879 30.5638 126.481 30.3916 126.157 30.0673C125.824 29.7489 125.657 29.3429 125.657 28.8789V18.6825C125.657 17.168 126.194 15.8632 127.26 14.7905C128.325 13.7182 129.621 13.1748 131.126 13.1748C132.706 13.1748 133.985 13.6516 134.909 14.6336C135.829 13.6515 137.104 13.1748 138.683 13.1748C140.189 13.1748 141.486 13.7165 142.55 14.7909C143.614 15.8646 144.152 17.1691 144.152 18.6825V28.8789C144.152 29.3356 143.99 29.7388 143.668 30.0631C143.342 30.3917 142.939 30.5638 142.479 30.5638H142.457C141.996 30.5638 141.593 30.3958 141.277 30.0632C140.947 29.7455 140.782 29.3409 140.782 28.8789V18.6825C140.782 18.0845 140.58 17.5905 140.171 17.1799C139.761 16.7683 139.273 16.565 138.683 16.565C138.1 16.565 137.616 16.7663 137.206 17.1795C136.797 17.5919 136.595 18.0849 136.595 18.6825V28.8789C136.595 29.3409 136.43 29.7455 136.1 30.0632C135.784 30.3958 135.381 30.5638 134.92 30.5638H134.898C134.44 30.5638 134.038 30.3932 133.713 30.0673C133.38 29.7489 133.213 29.3429 133.213 28.8789V18.6825C133.213 18.0845 133.011 17.5905 132.602 17.1799C132.192 16.7675 131.706 16.565 131.125 16.565C130.541 16.565 130.058 16.7663 129.647 17.1795C129.239 17.5912 129.039 18.0823 129.039 18.6825V28.8789C129.039 29.3429 128.872 29.7489 128.54 30.0673ZM133.992 29.7824C134.245 30.0376 134.547 30.1652 134.898 30.1652H134.92C135.278 30.1652 135.578 30.0376 135.817 29.7824C136.07 29.5416 136.196 29.24 136.196 28.8789V18.6825C136.196 17.982 136.438 17.3874 136.923 16.8987C137.408 16.41 137.994 16.1664 138.683 16.1664C139.379 16.1664 139.969 16.4115 140.454 16.8987C140.939 17.386 141.18 17.982 141.18 18.6825V28.8789C141.18 29.24 141.307 29.5416 141.56 29.7824C141.799 30.0376 142.099 30.1652 142.457 30.1652H142.479C142.83 30.1652 143.132 30.0376 143.385 29.7824C143.631 29.5344 143.754 29.2327 143.754 28.8789V18.6825C143.754 17.2743 143.257 16.0707 142.267 15.0715C141.277 14.0723 140.082 13.5734 138.683 13.5734C137.176 13.5734 136.005 14.0284 135.171 14.9374C135.08 15.0366 134.993 15.1413 134.91 15.2513C134.826 15.1415 134.739 15.0372 134.648 14.9382C133.809 14.0287 132.634 13.5734 131.126 13.5734C129.729 13.5734 128.534 14.0737 127.543 15.0715C126.551 16.0692 126.056 17.2729 126.056 18.6825V28.8789C126.056 29.24 126.182 29.5416 126.436 29.7824C126.689 30.0376 126.988 30.1652 127.332 30.1652H127.364C127.709 30.1652 128.007 30.0376 128.261 29.7824C128.514 29.5416 128.641 29.24 128.641 28.8789V18.6825C128.641 17.9806 128.88 17.3874 129.365 16.8987C129.85 16.41 130.435 16.1664 131.125 16.1664C131.813 16.1664 132.4 16.4115 132.885 16.8987C133.37 17.386 133.612 17.982 133.612 18.6825V28.8789C133.612 29.24 133.738 29.5416 133.992 29.7824Z" fill="#2589F6"/>
<path d="M151.84 16.1952C151.226 16.1952 150.706 16.4062 150.278 16.8295C149.85 17.2529 149.636 17.7673 149.636 18.3741C149.636 19.0937 149.968 19.6413 150.631 20.0141C150.924 20.1759 151.783 20.462 153.21 20.8709C154.43 21.2307 155.321 21.6642 155.885 22.1728C156.727 22.9285 157.148 23.989 157.148 25.3588C157.148 26.6852 156.67 27.818 155.714 28.7558C154.766 29.6935 153.624 30.1631 152.29 30.1631H148.212C147.863 30.1631 147.559 30.0359 147.302 29.7816C147.045 29.5273 146.916 29.2282 146.916 28.8815V28.8179C146.916 28.4726 147.045 28.172 147.302 27.9177C147.559 27.6634 147.861 27.5363 148.212 27.5363H152.396C153.003 27.5363 153.523 27.3253 153.958 26.902C154.386 26.4786 154.6 25.9642 154.6 25.3574C154.6 24.6522 154.268 24.1017 153.605 23.7058C153.291 23.5223 152.427 23.2117 151.016 22.7739C149.796 22.3794 148.907 21.9315 148.351 21.4301C147.509 20.6831 147.088 19.663 147.088 18.3713C147.088 17.0448 147.563 15.912 148.511 14.9743C149.461 14.0409 150.607 13.5713 151.948 13.5713H154.826C155.183 13.5713 155.489 13.6984 155.747 13.9527C155.996 14.1998 156.121 14.4989 156.121 14.8529V14.915C156.121 15.2604 155.996 15.5609 155.747 15.8152C155.489 16.0695 155.183 16.1967 154.826 16.1967H151.84V16.1952Z" fill="#2589F6"/>
<path fill-rule="evenodd" clip-rule="evenodd" d="M153.32 20.4899L153.323 20.4907C154.566 20.8574 155.524 21.312 156.152 21.8789C157.095 22.7258 157.546 23.904 157.546 25.3609C157.546 26.7952 157.025 28.03 155.994 29.0418C154.971 30.053 153.728 30.5638 152.29 30.5638H148.212C147.754 30.5638 147.351 30.3925 147.022 30.0672C146.693 29.7419 146.518 29.3423 146.518 28.8836V28.82C146.518 28.3629 146.693 27.9618 147.022 27.6364C147.35 27.3113 147.752 27.1398 148.212 27.1398H152.397C152.899 27.1398 153.319 26.9697 153.679 26.6195C154.03 26.2721 154.201 25.8604 154.201 25.3595C154.201 24.8107 153.958 24.3833 153.402 24.0512C153.28 23.9801 153.018 23.8675 152.587 23.7124C152.163 23.5599 151.601 23.3747 150.898 23.1567L150.893 23.1553C149.653 22.7544 148.703 22.2855 148.085 21.7293C147.146 20.8952 146.69 19.7598 146.69 18.3734C146.69 16.9397 147.208 15.7051 148.231 14.693L148.232 14.6921C149.257 13.6853 150.502 13.1748 151.948 13.1748H154.826C155.289 13.1748 155.696 13.3445 156.027 13.6714C156.353 13.9941 156.519 14.3955 156.519 14.855V14.9172C156.519 15.3699 156.352 15.7699 156.031 16.0967L156.027 16.1008C155.696 16.4277 155.289 16.5974 154.826 16.5974H151.759C151.285 16.6146 150.891 16.7857 150.558 17.1151C150.207 17.4627 150.035 17.8747 150.035 18.3763C150.035 18.9418 150.28 19.3611 150.826 19.6681C150.936 19.7287 151.189 19.8303 151.621 19.9737C152.043 20.1141 152.609 20.2861 153.32 20.4899ZM151.441 16.2292C151.542 16.2125 151.646 16.2023 151.753 16.1988C151.781 16.1978 151.811 16.1973 151.84 16.1973V16.1988H154.826C155.183 16.1988 155.49 16.0716 155.747 15.8173C155.996 15.563 156.121 15.2625 156.121 14.9172V14.855C156.121 14.501 155.996 14.2019 155.747 13.9549C155.49 13.7006 155.183 13.5734 154.826 13.5734H151.948C150.607 13.5734 149.461 14.043 148.512 14.9764C147.563 15.9141 147.089 17.0469 147.089 18.3734C147.089 19.6651 147.509 20.6852 148.351 21.4322C148.908 21.9336 149.796 22.3815 151.016 22.776C152.427 23.2138 153.291 23.5244 153.605 23.7079C154.268 24.1038 154.6 24.6544 154.6 25.3595C154.6 25.9663 154.386 26.4807 153.958 26.9041C153.523 27.3274 153.003 27.5384 152.397 27.5384H148.212C147.861 27.5384 147.559 27.6655 147.302 27.9198C147.045 28.1741 146.916 28.4747 146.916 28.82V28.8836C146.916 29.2304 147.045 29.5295 147.302 29.7838C147.559 30.0381 147.863 30.1652 148.212 30.1652H152.29C153.624 30.1652 154.766 29.6956 155.715 28.7579C156.67 27.8201 157.148 26.6873 157.148 25.3609C157.148 23.9911 156.727 22.9306 155.885 22.1749C155.322 21.6663 154.43 21.2328 153.21 20.873C151.783 20.4641 150.924 20.178 150.632 20.0162C149.968 19.6434 149.637 19.0958 149.637 18.3763C149.637 17.7694 149.85 17.255 150.278 16.8317C150.61 16.5032 150.998 16.3026 151.441 16.2292Z" fill="#2589F6"/>
<path d="M25.7144 35.0562C32.5234 35.0562 38.0431 29.4535 38.0431 22.5423C38.0431 15.631 32.5234 10.0283 25.7144 10.0283C18.9055 10.0283 13.3857 15.631 13.3857 22.5423C13.3857 29.4535 18.9055 35.0562 25.7144 35.0562Z" fill="#2589F6"/>
<path fill-rule="evenodd" clip-rule="evenodd" d="M39.965 22.5452C39.965 30.4903 33.6122 36.9801 25.7154 36.9801C17.8187 36.9801 11.4658 30.4903 11.4658 22.5452C11.4658 14.6002 17.8187 8.11035 25.7154 8.11035C33.6122 8.11035 39.965 14.6002 39.965 22.5452ZM38.0441 22.5452C38.0441 29.4565 32.5244 35.0592 25.7154 35.0592C18.9065 35.0592 13.3867 29.4565 13.3867 22.5452C13.3867 15.6339 18.9065 10.0313 25.7154 10.0313C32.5244 10.0313 38.0441 15.6339 38.0441 22.5452Z" fill="white"/>
<path d="M25.7183 31.4392C30.5575 31.4392 34.4805 27.4573 34.4805 22.5453C34.4805 17.6333 30.5575 13.6514 25.7183 13.6514C20.879 13.6514 16.9561 17.6333 16.9561 22.5453C16.9561 27.4573 20.879 31.4392 25.7183 31.4392Z" fill="white"/>
<path fill-rule="evenodd" clip-rule="evenodd" d="M34.4844 22.5443C34.4844 27.4573 30.5606 31.4401 25.7202 31.4401C20.8799 31.4401 16.9561 27.4573 16.9561 22.5443C16.9561 17.6313 20.8799 13.6484 25.7202 13.6484C30.5606 13.6484 34.4844 17.6313 34.4844 22.5443ZM34.4825 22.5443C34.4825 27.4562 30.5595 31.4382 25.7202 31.4382C20.881 31.4382 16.958 27.4562 16.958 22.5443C16.958 17.6323 20.881 13.6504 25.7202 13.6504C30.5595 13.6504 34.4825 17.6323 34.4825 22.5443Z" fill="black"/>
<path d="M22.0232 22.8789L18.0765 26.8848C17.805 27.1605 17.6602 27.5096 17.6602 27.8955C17.6602 28.2998 17.805 28.6305 18.0765 28.8878L19.2352 30.0822C19.5248 30.3579 19.8507 30.4865 20.2309 30.4865C20.6111 30.4865 20.955 30.3579 21.2085 30.0822L25.0103 26.2233C24.2861 25.9293 23.8517 25.3045 23.3085 24.7532C22.7654 24.202 22.3128 23.6139 22.0232 22.8789Z" fill="#2589F6"/>
<path d="M31.3491 21.9047C31.2767 21.8312 31.2043 21.7945 31.0776 21.7945C31.0052 21.7945 30.7517 21.9231 30.281 22.1987C29.8284 22.4744 29.3215 22.7684 28.7603 23.1175C28.1991 23.4667 27.9094 23.6504 27.8732 23.6688L25.7008 22.456V19.9018L28.9956 17.9723C29.1224 17.8804 29.1767 17.7885 29.1767 17.6599C29.1767 17.5313 29.1224 17.421 28.9956 17.3475C28.6698 17.127 28.2715 16.9432 27.7827 16.8146C27.312 16.686 26.8594 16.6309 26.4249 16.6309C25.049 16.6309 23.8542 17.127 22.8766 18.1193C21.899 19.1116 21.4102 20.3244 21.4102 21.721C21.4102 23.1175 21.899 24.3303 22.8766 25.3226C23.8542 26.3149 25.049 26.8111 26.4249 26.8111C27.4749 26.8111 28.4525 26.4987 29.3215 25.8555C30.2086 25.2308 30.8241 24.4038 31.1681 23.3748C31.331 22.8603 31.4216 22.456 31.4216 22.162C31.4578 22.0701 31.4216 21.9782 31.3491 21.9047Z" fill="#2589F6"/>
<defs>
<linearGradient id="paint0_linear_1_22447" x1="6.60403" y1="96.4403" x2="168.044" y2="171.946" gradientUnits="userSpaceOnUse">
<stop stop-color="#217EFD"/>
<stop offset="1" stop-color="#DB00FF"/>
</linearGradient>
</defs>
</svg>
