<svg width="62" height="62" viewBox="0 0 62 62" fill="none" xmlns="http://www.w3.org/2000/svg">
<path fill-rule="evenodd" clip-rule="evenodd" d="M29.5837 4.79199C15.8916 4.79199 4.79199 15.8916 4.79199 29.5837C4.79199 43.2757 15.8916 54.3753 29.5837 54.3753C43.2757 54.3753 54.3753 43.2757 54.3753 29.5837C54.3753 15.8916 43.2757 4.79199 29.5837 4.79199ZM0.541992 29.5837C0.541992 13.5444 13.5444 0.541992 29.5837 0.541992C45.6229 0.541992 58.6253 13.5444 58.6253 29.5837C58.6253 45.6229 45.6229 58.6253 29.5837 58.6253C13.5444 58.6253 0.541992 45.6229 0.541992 29.5837ZM52.1644 52.1644C52.9943 51.3345 54.3397 51.3345 55.1696 52.1644L60.8363 57.8311C61.6661 58.6609 61.6661 60.0064 60.8363 60.8363C60.0064 61.6661 58.6609 61.6661 57.8311 60.8363L52.1644 55.1696C51.3345 54.3397 51.3345 52.9943 52.1644 52.1644Z" fill="#253053"/>
<path d="M30.6641 36.2539C31.1198 36.2539 31.5618 36.2174 31.9902 36.1445C32.4277 36.0716 32.8424 35.9622 33.2344 35.8164L33.7266 39.0156C33.1888 39.1432 32.6237 39.2435 32.0313 39.3164C31.4388 39.3893 30.8372 39.4258 30.2266 39.4258C29.0781 39.4258 28.0208 39.2663 27.0547 38.9473C26.0885 38.6283 25.25 38.1497 24.5391 37.5117C23.8372 36.8646 23.2904 36.0671 22.8984 35.1191C22.5065 34.1621 22.3105 33.0456 22.3105 31.7695V27.0527C22.3105 25.722 22.5065 24.5553 22.8984 23.5527C23.2995 22.5501 23.8646 21.7116 24.5938 21.0371C25.3229 20.3626 26.1888 19.8568 27.1914 19.5195C28.194 19.1732 29.306 19 30.5273 19C31.0651 19 31.5983 19.041 32.127 19.123C32.6647 19.196 33.1979 19.2962 33.7266 19.4238L33.2344 22.6367C32.8789 22.5 32.4779 22.3906 32.0313 22.3086C31.5938 22.2266 31.1608 22.1855 30.7324 22.1855C30.0579 22.1855 29.4518 22.2812 28.9141 22.4727C28.3763 22.6549 27.9206 22.9421 27.5469 23.334C27.1823 23.7168 26.9043 24.2135 26.7129 24.8242C26.5215 25.4349 26.4258 26.1686 26.4258 27.0254V31.7695C26.4258 32.6081 26.526 33.319 26.7266 33.9023C26.9271 34.4766 27.2142 34.9368 27.5879 35.2832C27.9616 35.6204 28.4082 35.8665 28.9277 36.0215C29.4473 36.1764 30.026 36.2539 30.6641 36.2539ZM30.9922 26.2871V28.3105H20V26.2871H30.9922ZM30.9922 30.0469V32.0703H20V30.0469H30.9922Z" fill="#253053"/>
</svg>
